# xmcd
#
# Track frame offsets: 
#        200
#        14315
#        23470
#        40700
#        59777
#        75725
#        89600
#        97625
#        113275
#        127422
#
# Disc length: 1922 seconds
#
# Revision: 2
# Processed by: cddbd v1.5.2PL0 Copyright (c) Steve Scherf et al.
# Submitted via: ExactAudioCopy v0.95a5
#
DISCID=7107800a
DTITLE=Country Comfort - We Are The Children
DYEAR=1992
DGENRE=Hawaiian
TTITLE0=Sun Lite, Moon Lite
TTITLE1=Railway Station
TTITLE2=Make It With You
TTITLE3=Waimanalo Blues
TTITLE4=To Be Lonely
TTITLE5=We Are The Children
TTITLE6=Honkty Tonk Wines
TTITLE7=Rainy Day Song
TTITLE8=Country Palace
TTITLE9=Manha De Carnaval (Black Orpheus)
EXTD=
EXTT0=
EXTT1=
EXTT2=
EXTT3=
EXTT4=
EXTT5=
EXTT6=
EXTT7=
EXTT8=
EXTT9=
PLAYORDER=
